<mxfile host="app.diagrams.net" modified="2024-06-06T05:17:05.818Z" agent="Mozilla/5.0 (Windows NT 10.0; Win64; x64) AppleWebKit/537.36 (KHTML, like Gecko) Chrome/125.0.0.0 Safari/537.36 Edg/125.0.0.0" etag="Dwa-qc5gHFRYkz5XiWBj" version="24.4.14" type="google">
  <diagram id="QqP9ibMhK4-hLd7tzasE" name="Page-1">
    <mxGraphModel dx="473" dy="611" grid="1" gridSize="10" guides="1" tooltips="1" connect="1" arrows="1" fold="1" page="1" pageScale="1" pageWidth="827" pageHeight="1169" math="0" shadow="0">
      <root>
        <mxCell id="0" />
        <mxCell id="1" parent="0" />
        <mxCell id="mLNzyaIKKqh5VFkbTeTR-2" value="&lt;pre&gt;Partie (&lt;u&gt;&lt;b&gt;id_Partie&lt;/b&gt;&lt;/u&gt; ,code_Partie,score_final)&lt;br&gt;&lt;br&gt;Joueur (&lt;u&gt;&lt;b&gt;id_joueur&lt;/b&gt;&lt;/u&gt;,nom)&lt;/pre&gt;&lt;pre&gt;&lt;br&gt;Tour (&lt;u&gt;&lt;b&gt;id_Tour&lt;/b&gt;&lt;/u&gt;,indice,nombre_mot,score,&lt;i&gt;#id_Partie&lt;/i&gt;)&lt;/pre&gt;&lt;pre&gt;&lt;br&gt;Mot (&lt;u&gt;&lt;b&gt;id_Mot&lt;/b&gt;&lt;/u&gt;,mot,&lt;i&gt;#id_Couleur&lt;/i&gt;)&lt;/pre&gt;&lt;pre&gt;&lt;br&gt;Couleur (&lt;u&gt;&lt;b&gt;id_Couleur&lt;/b&gt;&lt;/u&gt;,nom_couleur)&lt;/pre&gt;&lt;pre&gt;&lt;br&gt;Participer(&lt;u&gt;&lt;b&gt;id_Partie,id_Joueur&lt;/b&gt;&lt;/u&gt;,role)&lt;/pre&gt;&lt;pre&gt;&lt;br&gt;Contenir (&lt;u&gt;&lt;b&gt;id_Partie&lt;/b&gt;,id_Mot&lt;/u&gt;)&lt;/pre&gt;" style="text;html=1;align=left;verticalAlign=middle;resizable=0;points=[];autosize=1;strokeColor=none;fillColor=none;" parent="1" vertex="1">
          <mxGeometry x="175" y="130" width="350" height="280" as="geometry" />
        </mxCell>
        <mxCell id="mLNzyaIKKqh5VFkbTeTR-3" value="&lt;h1&gt;&lt;u&gt;ModÃ¨le Relationnel&lt;/u&gt;&lt;/h1&gt;" style="text;html=1;align=center;verticalAlign=middle;whiteSpace=wrap;rounded=0;" parent="1" vertex="1">
          <mxGeometry x="210" y="40" width="280" height="30" as="geometry" />
        </mxCell>
      </root>
    </mxGraphModel>
  </diagram>
</mxfile>
